<svg width="380" height="113" viewBox="0 0 380 113" fill="none" xmlns="http://www.w3.org/2000/svg">
<g filter="url(#filter0_di_1_55)">
<path fill-rule="evenodd" clip-rule="evenodd" d="M147.682 94.06C151.442 97.5 157.322 99.22 165.322 99.22H168.562V83.62H168.082C162.802 83.62 160.162 81.18 160.162 76.3V7.66H142.162V77.62C142.162 85.06 144.002 90.54 147.682 94.06ZM184.251 96.46C188.731 98.78 193.971 99.94 199.971 99.94C205.971 99.94 211.211 98.78 215.691 96.46C220.171 94.14 223.651 90.9 226.131 86.74C228.691 82.58 229.971 77.74 229.971 72.22V70.4913C230.52 74.9771 231.865 79.1534 234.007 83.02C236.967 88.22 240.967 92.34 246.007 95.38C251.047 98.42 256.767 99.94 263.167 99.94C267.647 99.94 271.807 99.14 275.647 97.54C278.6 96.248 281.08 94.5065 283.087 92.3155V98.5H299.887V70.2467C300.447 75.0227 301.921 79.4005 304.309 83.38C307.509 88.5 311.749 92.54 317.029 95.5C322.389 98.46 328.309 99.94 334.789 99.94C341.269 99.94 347.149 98.46 352.429 95.5C357.709 92.54 361.909 88.5 365.029 83.38C368.229 78.18 369.829 72.3 369.829 65.74C369.829 59.1 368.229 53.22 365.029 48.1C361.909 42.98 357.709 38.94 352.429 35.98C347.149 33.02 341.269 31.54 334.789 31.54C328.309 31.54 322.389 33.02 317.029 35.98C311.749 38.94 307.509 42.98 304.309 48.1C301.921 52.0183 300.447 56.3817 299.887 61.1902V7.66H281.887V38.498C280.16 36.8009 278.12 35.4016 275.767 34.3C272.087 32.46 267.847 31.54 263.047 31.54C256.807 31.54 251.167 33.06 246.127 36.1C241.087 39.14 237.087 43.26 234.127 48.46C231.915 52.285 230.53 56.4672 229.971 61.0066V32.98H211.971V71.86C211.971 74.26 211.451 76.34 210.411 78.1C209.451 79.86 208.051 81.26 206.211 82.3C204.451 83.26 202.371 83.74 199.971 83.74C197.651 83.74 195.571 83.26 193.731 82.3C191.891 81.26 190.451 79.86 189.411 78.1C188.451 76.34 187.971 74.26 187.971 71.86V32.98H169.971V72.22C169.971 77.74 171.211 82.58 173.691 86.74C176.251 90.9 179.771 94.14 184.251 96.46ZM265.327 83.74C268.607 83.74 271.487 82.98 273.967 81.46C276.447 79.94 278.367 77.82 279.727 75.1C281.167 72.38 281.887 69.26 281.887 65.74C281.887 62.22 281.167 59.1 279.727 56.38C278.367 53.66 276.447 51.54 273.967 50.02C271.487 48.5 268.607 47.74 265.327 47.74C262.047 47.74 259.087 48.54 256.447 50.14C253.887 51.66 251.887 53.78 250.447 56.5C249.007 59.14 248.287 62.22 248.287 65.74C248.287 69.26 249.007 72.38 250.447 75.1C251.887 77.82 253.887 79.94 256.447 81.46C259.087 82.98 262.047 83.74 265.327 83.74ZM343.309 81.46C340.909 82.98 338.069 83.74 334.789 83.74C331.509 83.74 328.629 82.98 326.149 81.46C323.669 79.94 321.709 77.82 320.269 75.1C318.909 72.38 318.229 69.26 318.229 65.74C318.229 62.22 318.909 59.14 320.269 56.5C321.709 53.78 323.669 51.66 326.149 50.14C328.629 48.54 331.509 47.74 334.789 47.74C338.069 47.74 340.909 48.54 343.309 50.14C345.789 51.66 347.709 53.78 349.069 56.5C350.509 59.14 351.229 62.22 351.229 65.74C351.229 69.26 350.509 72.38 349.069 75.1C347.709 77.82 345.789 79.94 343.309 81.46ZM40 8.5C23.4315 8.5 10 21.9315 10 38.5V68.5C10 85.0685 23.4315 98.5 40 98.5H70C86.5685 98.5 100 85.0685 100 68.5V38.5C100 21.9315 86.5685 8.5 70 8.5H40ZM40 28.5C34.4772 28.5 30 32.9772 30 38.5V48.5H50V28.5H40ZM60 28.5H70C75.5229 28.5 80 32.9772 80 38.5V48.5H60V28.5ZM40 78.5H50V58.5H30V68.5C30 74.0229 34.4772 78.5 40 78.5ZM80 58.5V68.5C80 74.0229 75.5229 78.5 70 78.5H60V58.5H80Z" fill="url(#paint0_linear_1_55)" style=""/>
</g>
<defs>
<filter id="filter0_di_1_55" x="0" y="0.160004" width="379.829" height="112.28" filterUnits="userSpaceOnUse" color-interpolation-filters="sRGB">
<feFlood flood-opacity="0" result="BackgroundImageFix"/>
<feColorMatrix in="SourceAlpha" type="matrix" values="0 0 0 0 0 0 0 0 0 0 0 0 0 0 0 0 0 0 127 0" result="hardAlpha"/>
<feOffset dy="2.5"/>
<feGaussianBlur stdDeviation="5"/>
<feComposite in2="hardAlpha" operator="out"/>
<feColorMatrix type="matrix" values="0 0 0 0 0 0 0 0 0 0 0 0 0 0 0 0 0 0 0.1 0"/>
<feBlend mode="normal" in2="BackgroundImageFix" result="effect1_dropShadow_1_55"/>
<feBlend mode="normal" in="SourceGraphic" in2="effect1_dropShadow_1_55" result="shape"/>
<feColorMatrix in="SourceAlpha" type="matrix" values="0 0 0 0 0 0 0 0 0 0 0 0 0 0 0 0 0 0 127 0" result="hardAlpha"/>
<feOffset dx="2.5" dy="2.5"/>
<feGaussianBlur stdDeviation="5"/>
<feComposite in2="hardAlpha" operator="arithmetic" k2="-1" k3="1"/>
<feColorMatrix type="matrix" values="0 0 0 0 1 0 0 0 0 1 0 0 0 0 1 0 0 0 0.25 0"/>
<feBlend mode="normal" in2="shape" result="effect2_innerShadow_1_55"/>
</filter>
<linearGradient id="paint0_linear_1_55" x1="180" y1="8.5" x2="180" y2="98.5" gradientUnits="userSpaceOnUse">
<stop stop-color="#8760FF" style="stop-color:#8760FF;stop-color:color(display-p3 0.5312 0.3750 1.0000);stop-opacity:1;"/>
<stop offset="1" stop-color="#6633FF" style="stop-color:#6633FF;stop-color:color(display-p3 0.4000 0.2000 1.0000);stop-opacity:1;"/>
</linearGradient>
</defs>
</svg>
