<svg width="185" height="55" viewBox="0 0 185 55" fill="none" xmlns="http://www.w3.org/2000/svg">
<path fill-rule="evenodd" clip-rule="evenodd" d="M18.8345 1.88437C14.8335 0.812307 10.721 3.18668 9.64894 7.18767L1.88437 36.1654C0.812307 40.1664 3.18668 44.279 7.18767 45.351L36.1654 53.1156C40.1664 54.1877 44.279 51.8133 45.351 47.8123L53.1156 18.8345C54.1877 14.8335 51.8133 10.721 47.8123 9.64894L18.8345 1.88437ZM42.8093 18.6612L33.1501 16.073L30.5619 25.7322L40.2211 28.3204L42.8093 18.6612ZM14.7789 26.6796L24.4381 29.2678L21.8499 38.927L12.1907 36.3388L14.7789 26.6796ZM70.6309 47.7985C72.4953 49.5042 75.4108 50.357 79.3774 50.357H80.9839V42.622H80.746C78.1279 42.622 76.819 41.4122 76.819 38.9925V4.95849H67.8939V39.647C67.8939 43.336 68.8063 46.0532 70.6309 47.7985ZM89.3576 48.9885C91.579 50.1388 94.1771 50.714 97.1521 50.714C100.127 50.714 102.725 50.1388 104.947 48.9885C107.168 47.8382 108.893 46.2317 110.123 44.169C111.392 42.1063 112.027 39.7065 112.027 36.9695V17.513H103.102V36.791C103.102 37.981 102.844 39.0123 102.329 39.885C101.853 40.7577 101.158 41.4518 100.246 41.9675C99.3735 42.4435 98.3421 42.6815 97.1521 42.6815C96.0018 42.6815 94.9705 42.4435 94.0581 41.9675C93.1458 41.4518 92.4318 40.7577 91.9162 39.885C91.4401 39.0123 91.2021 37.981 91.2021 36.791V17.513H82.2771V36.9695C82.2771 39.7065 82.892 42.1063 84.1216 44.169C85.391 46.2317 87.1363 47.8382 89.3576 48.9885ZM129.082 50.714C125.908 50.714 123.072 49.9603 120.573 48.453C118.074 46.9457 116.091 44.9028 114.623 42.3245C113.195 39.7462 112.481 36.8902 112.481 33.7565C112.481 30.5832 113.215 27.7272 114.683 25.1885C116.15 22.6102 118.134 20.5673 120.633 19.06C123.132 17.5527 125.928 16.799 129.022 16.799C131.402 16.799 133.505 17.2552 135.329 18.1675C136.496 18.7137 137.508 19.4075 138.364 20.249V4.95849H147.289V50H138.959V46.9335C137.964 48.0199 136.734 48.8834 135.27 49.524C133.366 50.3173 131.303 50.714 129.082 50.714ZM130.153 42.6815C131.779 42.6815 133.207 42.3047 134.437 41.551C135.666 40.7973 136.618 39.7462 137.293 38.3975C138.007 37.0488 138.364 35.5018 138.364 33.7565C138.364 32.0112 138.007 30.4642 137.293 29.1155C136.618 27.7668 135.666 26.7157 134.437 25.962C133.207 25.2083 131.779 24.8315 130.153 24.8315C128.526 24.8315 127.059 25.2282 125.75 26.0215C124.48 26.7752 123.489 27.8263 122.775 29.175C122.061 30.484 121.704 32.0112 121.704 33.7565C121.704 35.5018 122.061 37.0488 122.775 38.3975C123.489 39.7462 124.48 40.7973 125.75 41.551C127.059 42.3047 128.526 42.6815 130.153 42.6815ZM156.383 48.5125C159.041 49.9802 161.976 50.714 165.189 50.714C168.402 50.714 171.318 49.9802 173.936 48.5125C176.554 47.0448 178.636 45.0417 180.183 42.503C181.77 39.9247 182.563 37.0092 182.563 33.7565C182.563 30.4642 181.77 27.5487 180.183 25.01C178.636 22.4713 176.554 20.4682 173.936 19.0005C171.318 17.5328 168.402 16.799 165.189 16.799C161.976 16.799 159.041 17.5328 156.383 19.0005C153.765 20.4682 151.663 22.4713 150.076 25.01C148.529 27.5487 147.756 30.4642 147.756 33.7565C147.756 37.0092 148.529 39.9247 150.076 42.503C151.663 45.0417 153.765 47.0448 156.383 48.5125ZM169.414 41.551C168.224 42.3047 166.816 42.6815 165.189 42.6815C163.563 42.6815 162.135 42.3047 160.905 41.551C159.676 40.7973 158.704 39.7462 157.99 38.3975C157.316 37.0488 156.978 35.5018 156.978 33.7565C156.978 32.0112 157.316 30.484 157.99 29.175C158.704 27.8263 159.676 26.7752 160.905 26.0215C162.135 25.2282 163.563 24.8315 165.189 24.8315C166.816 24.8315 168.224 25.2282 169.414 26.0215C170.644 26.7752 171.596 27.8263 172.27 29.175C172.984 30.484 173.341 32.0112 173.341 33.7565C173.341 35.5018 172.984 37.0488 172.27 38.3975C171.596 39.7462 170.644 40.7973 169.414 41.551Z" fill="url(#paint0_linear_5_49)" style=""/>
<defs>
<linearGradient id="paint0_linear_5_49" x1="1.62695" y1="27.5" x2="182.563" y2="27.5" gradientUnits="userSpaceOnUse">
<stop stop-color="#335FFF" style="stop-color:#335FFF;stop-color:color(display-p3 0.2000 0.3725 1.0000);stop-opacity:1;"/>
<stop offset="1" stop-color="#AA35FF" style="stop-color:#AA35FF;stop-color:color(display-p3 0.6667 0.2078 1.0000);stop-opacity:1;"/>
</linearGradient>
</defs>
</svg>
