<svg width="360" height="93" viewBox="0 0 360 93" fill="none" xmlns="http://www.w3.org/2000/svg">
<path fill-rule="evenodd" clip-rule="evenodd" d="M137.682 87.06C141.442 90.5 147.322 92.22 155.322 92.22H158.562V76.62H158.082C152.802 76.62 150.162 74.18 150.162 69.3V0.660004H132.162V70.62C132.162 78.06 134.002 83.54 137.682 87.06ZM174.251 89.46C178.731 91.78 183.971 92.94 189.971 92.94C195.971 92.94 201.211 91.78 205.691 89.46C210.171 87.14 213.651 83.9 216.131 79.74C218.691 75.58 219.971 70.74 219.971 65.22V63.4913C220.52 67.9771 221.865 72.1534 224.007 76.02C226.967 81.22 230.967 85.34 236.007 88.38C241.047 91.42 246.767 92.94 253.167 92.94C257.647 92.94 261.807 92.14 265.647 90.54C268.6 89.248 271.08 87.5065 273.087 85.3155V91.5H289.887V63.2467C290.447 68.0227 291.921 72.4005 294.309 76.38C297.509 81.5 301.749 85.54 307.029 88.5C312.389 91.46 318.309 92.94 324.789 92.94C331.269 92.94 337.149 91.46 342.429 88.5C347.709 85.54 351.909 81.5 355.029 76.38C358.229 71.18 359.829 65.3 359.829 58.74C359.829 52.1 358.229 46.22 355.029 41.1C351.909 35.98 347.709 31.94 342.429 28.98C337.149 26.02 331.269 24.54 324.789 24.54C318.309 24.54 312.389 26.02 307.029 28.98C301.749 31.94 297.509 35.98 294.309 41.1C291.921 45.0183 290.447 49.3817 289.887 54.1902V0.660004H271.887V31.498C270.16 29.8009 268.12 28.4016 265.767 27.3C262.087 25.46 257.847 24.54 253.047 24.54C246.807 24.54 241.167 26.06 236.127 29.1C231.087 32.14 227.087 36.26 224.127 41.46C221.915 45.285 220.53 49.4672 219.971 54.0066V25.98H201.971V64.86C201.971 67.26 201.451 69.34 200.411 71.1C199.451 72.86 198.051 74.26 196.211 75.3C194.451 76.26 192.371 76.74 189.971 76.74C187.651 76.74 185.571 76.26 183.731 75.3C181.891 74.26 180.451 72.86 179.411 71.1C178.451 69.34 177.971 67.26 177.971 64.86V25.98H159.971V65.22C159.971 70.74 161.211 75.58 163.691 79.74C166.251 83.9 169.771 87.14 174.251 89.46ZM255.327 76.74C258.607 76.74 261.487 75.98 263.967 74.46C266.447 72.94 268.367 70.82 269.727 68.1C271.167 65.38 271.887 62.26 271.887 58.74C271.887 55.22 271.167 52.1 269.727 49.38C268.367 46.66 266.447 44.54 263.967 43.02C261.487 41.5 258.607 40.74 255.327 40.74C252.047 40.74 249.087 41.54 246.447 43.14C243.887 44.66 241.887 46.78 240.447 49.5C239.007 52.14 238.287 55.22 238.287 58.74C238.287 62.26 239.007 65.38 240.447 68.1C241.887 70.82 243.887 72.94 246.447 74.46C249.087 75.98 252.047 76.74 255.327 76.74ZM333.309 74.46C330.909 75.98 328.069 76.74 324.789 76.74C321.509 76.74 318.629 75.98 316.149 74.46C313.669 72.94 311.709 70.82 310.269 68.1C308.909 65.38 308.229 62.26 308.229 58.74C308.229 55.22 308.909 52.14 310.269 49.5C311.709 46.78 313.669 44.66 316.149 43.14C318.629 41.54 321.509 40.74 324.789 40.74C328.069 40.74 330.909 41.54 333.309 43.14C335.789 44.66 337.709 46.78 339.069 49.5C340.509 52.14 341.229 55.22 341.229 58.74C341.229 62.26 340.509 65.38 339.069 68.1C337.709 70.82 335.789 72.94 333.309 74.46ZM30 1.5C13.4315 1.5 0 14.9315 0 31.5V61.5C0 78.0685 13.4315 91.5 30 91.5H60C76.5685 91.5 90 78.0685 90 61.5V31.5C90 14.9315 76.5685 1.5 60 1.5H30ZM30 21.5C24.4772 21.5 20 25.9772 20 31.5V41.5H40V21.5H30ZM50 21.5H60C65.5229 21.5 70 25.9772 70 31.5V41.5H50V21.5ZM30 71.5H40V51.5H20V61.5C20 67.0229 24.4772 71.5 30 71.5ZM70 51.5V61.5C70 67.0229 65.5229 71.5 60 71.5H50V51.5H70Z" fill="url(#paint0_linear_1_55)" style=""/>
<defs>
<linearGradient id="paint0_linear_1_55" x1="170" y1="1.5" x2="170" y2="91.5" gradientUnits="userSpaceOnUse">
<stop stop-color="#AA35FF" style="stop-color:#AA35FF;stop-color:color(display-p3 0.6667 0.2078 1.0000);stop-opacity:1;"/>
<stop offset="1" stop-color="#335FFF" style="stop-color:#335FFF;stop-color:color(display-p3 0.2000 0.3725 1.0000);stop-opacity:1;"/>
</linearGradient>
</defs>
</svg>
